<svg xmlns="http://www.w3.org/2000/svg" viewBox="0 0 128 128">
  <!-- Background with slight gradient -->
  <defs>
    <linearGradient id="bg-gradient" x1="0%" y1="0%" x2="100%" y2="100%">
      <stop offset="0%" stop-color="#336791" />
      <stop offset="100%" stop-color="#254B6B" />
    </linearGradient>
  </defs>
  
  <!-- Background Circle with slight shadow -->
  <circle cx="64" cy="64" r="60" fill="url(#bg-gradient)" />
  <circle cx="64" cy="64" r="56" fill="url(#bg-gradient)" />
  
  <!-- Enhanced Elephant Silhouette -->
  <path d="M40 50 C40 42, 50 34, 64 34 C78 34, 88 42, 88 50 C88 58, 84 66, 76 70 L76 84 C76 88, 70 92, 64 92 C58 92, 52 88, 52 84 L52 70 C44 66, 40 58, 40 50 Z" fill="#FFFFFF" />
  
  <!-- Editor Code Lines with subtle animation effect -->
  <g>
    <rect x="56" y="50" width="26" height="2.5" fill="#336791" rx="1.25" />
    <rect x="56" y="57" width="18" height="2.5" fill="#336791" rx="1.25" />
    <rect x="56" y="64" width="22" height="2.5" fill="#336791" rx="1.25" />
  </g>
  
  <!-- Ears -->
  <circle cx="82" cy="42" r="5" fill="#336791" />
  <circle cx="46" cy="42" r="5" fill="#336791" />
  
  <!-- Subtle glow effect -->
  <circle cx="64" cy="64" r="60" fill="none" stroke="#FFFFFF" stroke-width="1.5" stroke-opacity="0.2" />
</svg>